<svg xmlns="http://www.w3.org/2000/svg" xmlns:xlink="http://www.w3.org/1999/xlink" viewBox="0 0 104 98">
  <defs>
    <style>
      .cls-2, .cls-3, .cls-5, .cls-6, .cls-8 {
        stroke: #ced7db;
      }

      .cls-13, .cls-2, .cls-3, .cls-4, .cls-5, .cls-6, .cls-7, .cls-8 {
        stroke-miterlimit: 10;
      }

      .cls-2 {
        fill: url(#linear-gradient);
      }

      .cls-3 {
        fill: url(#linear-gradient-2);
      }

      .cls-4, .cls-7 {
        stroke: #d5891f;
      }

      .cls-4 {
        fill: url(#radial-gradient);
      }

      .cls-5 {
        fill: url(#linear-gradient-3);
      }

      .cls-6 {
        fill: url(#linear-gradient-4);
      }

      .cls-7 {
        fill: url(#radial-gradient-2);
      }

      .cls-8 {
        fill: url(#radial-gradient-3);
      }

      .cls-9 {
        fill: url(#radial-gradient-4);
      }

      .cls-10 {
        fill: url(#radial-gradient-5);
      }

      .cls-11 {
        fill: #372702;
      }

      .cls-12 {
        fill: #a0d468;
      }

      .cls-13 {
        fill: none;
        stroke: #dc0740;
      }

      .cls-14 {
        fill: #263703;
      }

      .cls-15, .cls-17, .cls-18 {
        fill: #fff;
      }

      .cls-16 {
        stroke: #8ea2aa;
        fill: url(#radial-gradient-6);
      }

      .cls-17 {
        opacity: 0.3;
      }

      .cls-18 {
        opacity: 0.4;
      }
    </style>
    <linearGradient id="linear-gradient" x1="0.759" y1="0.012" x2="0.397" y2="0.989" gradientUnits="objectBoundingBox">
      <stop offset="0" stop-color="#dee5e7"/>
      <stop offset="1" stop-color="#a5b7be"/>
    </linearGradient>
    <linearGradient id="linear-gradient-2" x1="0.489" y1="0.286" x2="0.327" y2="1.03" xlink:href="#linear-gradient"/>
    <radialGradient id="radial-gradient" cx="2.518" cy="1.559" r="2.383" gradientUnits="userSpaceOnUse">
      <stop offset="0.366" stop-color="#ffa119"/>
      <stop offset="1" stop-color="#b9761e"/>
    </radialGradient>
    <linearGradient id="linear-gradient-3" x1="4.934" y1="0.012" x2="4.572" y2="0.989" xlink:href="#linear-gradient"/>
    <linearGradient id="linear-gradient-4" x1="7.962" y1="0.286" x2="7.8" y2="1.03" xlink:href="#linear-gradient"/>
    <radialGradient id="radial-gradient-2" cx="29.624" cy="1.559" r="2.383" xlink:href="#radial-gradient"/>
    <radialGradient id="radial-gradient-3" cx="56.294" cy="61.663" r="48.673" gradientTransform="translate(-0.909 -0.926) scale(1.02 1.02)" gradientUnits="userSpaceOnUse">
      <stop offset="0" stop-color="#f7f8f9"/>
      <stop offset="0.368" stop-color="#f4f6f7"/>
      <stop offset="0.633" stop-color="#ebeef0"/>
      <stop offset="0.864" stop-color="#dbe2e5"/>
      <stop offset="1" stop-color="#ced7db"/>
    </radialGradient>
    <radialGradient id="radial-gradient-4" cx="138.05" cy="212.097" r="1.317" gradientTransform="translate(81.975 -7.559) scale(2.644 2.644)" gradientUnits="userSpaceOnUse">
      <stop offset="0" stop-color="#a5b7be"/>
      <stop offset="1" stop-color="#859ca5"/>
    </radialGradient>
    <radialGradient id="radial-gradient-5" cx="118.63" cy="212.097" r="1.317" gradientTransform="translate(-91.974 -7.559) scale(2.644 2.644)" xlink:href="#radial-gradient-4"/>
    <radialGradient id="radial-gradient-6" cx="40.417" cy="28.515" r="68.281" gradientTransform="translate(11.908 8.401) scale(0.705 0.705)" gradientUnits="userSpaceOnUse">
      <stop offset="0" stop-color="#d6dee1"/>
      <stop offset="0" stop-color="#d4dcdf"/>
      <stop offset="1" stop-color="#859ca5"/>
    </radialGradient>
  </defs>
  <g>
    <path id="Path_411" class="cls-2" d="M245.61,57.993l-.889,23.454-2.434,1.159L240.2,80.172,244.18,57.8Z" transform="translate(-145.58 -39.068)"/>
    <path id="Path_412" class="cls-3" d="M247.6,117s2.821.5,3.091,2.2c.27,1.662.773,2.975.116,9.93a3.509,3.509,0,0,1-3.207,3.362Z" transform="translate(-150.121 -75.393)"/>
    <ellipse id="Ellipse_5" class="cls-4" cx="2.396" cy="2.396" rx="2.396" ry="2.396" transform="translate(97.209 15.834)"/>
    <path id="Path_413" class="cls-5" d="M5.5,57.993l.889,23.454,2.473,1.159,2.048-2.434L6.93,57.8Z" transform="translate(-1.568 -39.068)"/>
    <path id="Path_414" class="cls-6" d="M6.593,117s-2.821.5-3.091,2.2-.773,2.975-.116,9.93a3.509,3.509,0,0,0,3.207,3.362Z" transform="translate(-0.072 -75.393)"/>
    <ellipse id="Ellipse_6" class="cls-7" cx="2.396" cy="2.396" rx="2.396" ry="2.396" transform="translate(2 15.834)"/>
    <path id="Path_415" class="cls-8" d="M56.368,14.5s16.422-.309,28.4,10.008c10.7,9.2,17.774,22.411,17.774,36.978S94.7,95.372,79.359,98.308c0,0-3.9,10.549-23.107,10.549h0c-19.2,0-23.068-10.549-23.068-10.549C17.844,95.333,10,76.013,10,61.485s7.071-27.743,17.774-36.978C39.753,14.189,56.175,14.5,56.175,14.5h.193Z" transform="translate(-4.329 -12.497)"/>
    <path id="Path_417" class="cls-9" d="M188.557,216.7a20.994,20.994,0,0,0,2.821-.734s-.039-4.985-1.893-8.462l-1.584.541A21.238,21.238,0,0,1,188.557,216.7Z" transform="translate(-113.489 -130.924)"/>
    <path id="Path_418" class="cls-10" d="M65.521,216.7a20.994,20.994,0,0,1-2.821-.734s.039-4.985,1.893-8.462l1.584.541A21.238,21.238,0,0,0,65.521,216.7Z" transform="translate(-36.666 -130.924)"/>
    <path id="Path_432" class="cls-11" d="M68.954,131.714c20.4,0,30.332-8.308,30.332-8.308,7.535-5.873,8.037-17.852,8.037-17.852.309-9.583-4.637-12.172-4.637-12.172A78.957,78.957,0,0,0,69.07,85.191h-.039a79.662,79.662,0,0,0-33.617,8.192s-4.946,2.628-4.637,12.172c0,0,.464,11.978,8.037,17.852,0,0,9.969,8.308,30.332,8.308Z" transform="translate(-17.07 -55.872)"/>
    <path id="Path_433" class="cls-12" d="M47.2,120.818s-.773,3.168,3.091,8.771c0,0,9.312,7.264,28.709,7.264s28.864-7.032,28.864-7.032,3.246-5.139,3.168-9.544c-.077-4.366-8.578-22.72-8.578-22.72L78.885,93.5,54.348,98.91Z" transform="translate(-27.116 -60.974)"/>
    <path id="Path_434" class="cls-13" d="M118.8,135.4" transform="translate(-71.089 -86.683)"/>
    <path id="Path_435" class="cls-14" d="M117.307,127.1l-.618,1.546s-.889.039-.889.811c0,0,0,1,1.236,1.043l.7-.811.425-1.855Z" transform="translate(-69.248 -81.59)"/>
    <circle id="Ellipse_11" class="cls-15" cx="0.27" cy="0.27" r="0.27" transform="translate(47.325 47.519)"/>
    <path id="Path_436" class="cls-14" d="M136.95,127.1l.618,1.546s.889.039.889.811c0,0,0,1-1.236,1.043l-.7-.811-.425-1.855Z" transform="translate(-81.704 -81.59)"/>
    <circle id="Ellipse_12" class="cls-15" cx="0.27" cy="0.27" r="0.27" transform="translate(55.439 47.519)"/>
    <path id="Path_439" class="cls-11" d="M60.253,48.918s1.236.116,1.236-1.391a1.092,1.092,0,0,0-.618-1s-.155-.811.193-1.121a1.584,1.584,0,0,0,1.043-1.468.658.658,0,0,0-.309-.657s-.58-.5.193-.927a2.9,2.9,0,0,1,3.478.348,1.157,1.157,0,0,1,.077,1.507s-1.159,1.043-.541,1.855,1.932.425,1.7,1.623a1.313,1.313,0,0,1-.464.7.709.709,0,0,0,.155,1.275s1.121.425,1.507-.309a2.716,2.716,0,0,0,.657-1.932A3,3,0,0,0,67.324,45.4s-.58-1.159.425-1.275c0,0,1.777.348,1.739-.773a.85.85,0,0,0-.7-.966s-.889-.889.27-1.159a3.522,3.522,0,0,1,4.057,1.7,1.88,1.88,0,0,1-.425,1.816s-2.2,1.816.618,2.28c0,0,1.855.58,1.739-1.662,0,0-.425-.966.966-1.352,0,0,.7-.309.155-1.043,0,0-.309-1.275,1.043-.889s1.468,1.816,1.236,2.975a3,3,0,0,1-1,1.236c-.7.464-.232,2.318,1.623,1.739,0,0-.734,1.777.232,2.125a1.289,1.289,0,0,0,1.662-.348c.425-.386.85-.155.811.386a1.906,1.906,0,0,1-.966,1.584c-.734.464-.773,2.087.425,2.164,1.236.116,1.546,0,2.087-1.352s2.28-.27,2.28-.27,1.043.425.386,2.087c0,0-1.236,2.55,1.352,2.357,0,0,.425-.155.348.386s-.5,2.125.7,2.4a1.259,1.259,0,0,0,1.546-.309s-.7,1.352-.039,1.971c.7.618.889.309.889.309s-.618,1.777,1.236,1.855c0,0,.425.155.348-.58a.308.308,0,0,1,.464.27s.193.309.773.155a1.929,1.929,0,0,0,1.739-2.357c-.232-1.893-.27-1.777.811-1.932,0,0,.348.116.155,1.275s1.507-9.544,1.507-9.544L96.723,39.48,59.971,30.159,23.85,40.206,22.656,50.773l1.662,8.269c1.082.155,1.043.039.811,1.932a1.95,1.95,0,0,0,1.739,2.357c.58.155.773-.155.773-.155.116-.464.464-.27.464-.27-.077.7.348.58.348.58a1.307,1.307,0,0,0,1.236-1.855s.193.309.889-.309-.039-1.971-.039-1.971a1.259,1.259,0,0,0,1.546.309c1.236-.27.773-1.855.7-2.4s.348-.386.348-.386c2.589.155,1.352-2.357,1.352-2.357-.7-1.623.386-2.087.386-2.087s1.777-1.082,2.28.27.85,1.468,2.087,1.352,1.2-1.7.425-2.164a1.865,1.865,0,0,1-.966-1.584c0-.5.425-.734.811-.386a1.289,1.289,0,0,0,1.662.348c.966-.386.232-2.125.232-2.125,1.855.58,2.357-1.236,1.623-1.739a3,3,0,0,1-1-1.236c-.232-1.159-.155-2.589,1.236-2.975s1.043.889,1.043.889c-.58.734.155,1.043.155,1.043,1.43.386.966,1.352.966,1.352-.155,2.241,1.739,1.662,1.739,1.662,2.821-.425.618-2.28.618-2.28a2,2,0,0,1-.425-1.816,3.522,3.522,0,0,1,4.057-1.7c1.159.27.27,1.159.27,1.159a.8.8,0,0,0-.7.966c-.039,1.121,1.739.773,1.739.773.966.155.425,1.275.425,1.275a3,3,0,0,0-1.236,2.009,2.716,2.716,0,0,0,.657,1.932c.425.734,1.507.309,1.507.309a.721.721,0,0,0,.155-1.275,1.093,1.093,0,0,1-.464-.7c-.232-1.236,1.082-.811,1.7-1.623s-.541-1.855-.541-1.855A1.157,1.157,0,0,1,55,42.813c1-1.159,2.666-.734,3.478-.348s.193.927.193.927a.639.639,0,0,0-.309.657A1.584,1.584,0,0,0,59.4,45.518c.348.309.193,1.121.193,1.121a1.092,1.092,0,0,0-.618,1c0,1.507,1.236,1.391,1.236,1.391h.039Z" transform="translate(-8.407 -3.602)"/>
    <path id="Path_443" class="cls-16" d="M40.426,57.033a74.09,74.09,0,0,1-12.332-1.041,61.294,61.294,0,0,1-11.524-3.055A33.908,33.908,0,0,1,7.46,47.97a14.886,14.886,0,0,1-5.094-6.779A50.4,50.4,0,0,1,.009,26.522a42.628,42.628,0,0,1,.657-9.017,11.57,11.57,0,0,1,4.057-5.912,42.466,42.466,0,0,1,10.9-6.584A60.964,60.964,0,0,1,26.757,1.554,69.249,69.249,0,0,1,40.271,0h.311A69.254,69.254,0,0,1,54.094,1.554,60.967,60.967,0,0,1,65.228,5.009a42.466,42.466,0,0,1,10.9,6.584,11.57,11.57,0,0,1,4.057,5.912,42.544,42.544,0,0,1,.657,9,50.617,50.617,0,0,1-2.357,14.683,14.88,14.88,0,0,1-5.1,6.795,33.861,33.861,0,0,1-9.12,4.966A69.927,69.927,0,0,1,40.426,57.033Zm-.077-4.87.173,0A59.736,59.736,0,0,0,63.19,48a31.46,31.46,0,0,0,7.492-4.144c3.892-3.034,5.87-7.726,6.844-11.128a32.352,32.352,0,0,0,1.193-6.723c.16-4.95-1.109-8-2.2-9.68a7.55,7.55,0,0,0-2.435-2.492,80.3,80.3,0,0,0-33.125-8.2c-.312,0-.485.005-.492.005h-.039c-.006,0-.157,0-.43,0a80.727,80.727,0,0,0-33.187,8.2,7.648,7.648,0,0,0-2.434,2.507c-1.093,1.688-2.362,4.735-2.2,9.665a32.039,32.039,0,0,0,1.179,6.723c.97,3.4,2.947,8.094,6.859,11.128A31.626,31.626,0,0,0,17.716,48a59.737,59.737,0,0,0,22.633,4.164Z" transform="translate(11.535 23.677)"/>
    <path id="Path_442" class="cls-11" d="M121.448,145.907a6.077,6.077,0,0,1-3.748-.7s-2.241-2.512-9.776-2.512h0c-7.535,0-9.776,2.512-9.776,2.512a6.413,6.413,0,0,1-3.748.7,1.929,1.929,0,0,0,1.159,1.623c-3.478,11.476,5.1,19.938,5.1,19.938a5.619,5.619,0,0,1-.077-1.816L107.924,175h0l7.342-9.351a4.393,4.393,0,0,1-.077,1.816s8.539-8.462,5.1-19.938A1.864,1.864,0,0,0,121.448,145.907Zm-8.694,10.24s-3.632.464-4.83-2.125h0c-1.2,2.627-4.83,2.125-4.83,2.125-5.41,0-4.6-6.569-4.6-6.569,6.917,0,9.428-2.859,9.428-2.859s2.55,2.859,9.467,2.859C117.391,149.578,118.2,156.147,112.754,156.147Z" transform="translate(-56.117 -91.163)"/>
    <path id="Path_427" class="cls-17" d="M87.568,124.392c-.232.657-.541,1.739-1,3.362-.039.116-.966,3.284-4.134,3.284H82.39c-2.28.116-8.655.232-10.626-.657l-.116-.039c-.039,0-2.782-.773-3.362-5.448v-.077a27.254,27.254,0,0,1-.386-4.83,1.256,1.256,0,0,1,.386-.927c1.275-1.275,4.946-1.546,6.376-1.546h.193c.077,0,6.917-.58,12.017,2.048C86.834,119.562,88.766,120.219,87.568,124.392Z" transform="translate(-39.857 -75.675)"/>
    <path id="Path_428" class="cls-17" d="M157.825,124.817v.077c-.58,4.675-3.323,5.448-3.362,5.448l-.116.039c-1.971.889-8.346.773-10.626.657h-.039a4.417,4.417,0,0,1-4.134-3.284c-.425-1.623-.773-2.7-1-3.362-1.236-4.173.7-4.83.7-4.83,5.062-2.628,11.94-2.048,12.017-2.048h.193c1.468,0,5.1.27,6.376,1.546a1.126,1.126,0,0,1,.386.927A27.857,27.857,0,0,1,157.825,124.817Z" transform="translate(-82.95 -75.675)"/>
    <ellipse id="Ellipse_9" class="cls-15" cx="3.671" cy="3.671" rx="3.671" ry="3.671" transform="translate(34.496 44.814)"/>
    <ellipse id="Ellipse_10" class="cls-15" cx="3.671" cy="3.671" rx="3.671" ry="3.671" transform="translate(61.815 44.814)"/>
    <path id="Path_429" class="cls-18" d="M66.6,121.175a20.006,20.006,0,0,0,10.549,2.975s6.723.155,10.278-2.318l.155-2.28-2.28-1.546L79.351,116.5,71,116.655l-3.207,1-1.043,1.082Z" transform="translate(-39.059 -75.086)"/>
    <path id="Path_430" class="cls-18" d="M157.781,121.175a20.006,20.006,0,0,1-10.549,2.975s-6.723.155-10.278-2.318l-.155-2.28,2.28-1.546,5.951-1.507,8.308.077,3.207,1,1.043,1.082Z" transform="translate(-82.134 -75.086)"/>
    <path id="Path_431" class="cls-14" d="M106.813,115.494s-7.535-.7-12.944,2.4a7.62,7.62,0,0,1-3.709,1.352h-.116a7.619,7.619,0,0,1-3.709-1.352c-5.371-3.091-12.944-2.4-12.944-2.4s-7.728-.077-7.689,3.246a25.306,25.306,0,0,0,.425,4.985c.657,5.255,3.941,6.105,3.941,6.105,2.589,1.159,10.974.734,10.974.734,3.825,0,4.869-3.825,4.869-3.825a35.629,35.629,0,0,1,1.275-4.1,4.774,4.774,0,0,1,2.9-2.318h0a4.774,4.774,0,0,1,2.9,2.318,35.625,35.625,0,0,1,1.275,4.1s1.043,3.825,4.869,3.825c0,0,8.385.464,10.974-.734,0,0,3.284-.85,3.941-6.105a29.929,29.929,0,0,0,.425-4.985C114.541,115.416,106.813,115.494,106.813,115.494Zm-20.6,7.651c-.232.657-.541,1.739-1,3.362-.039.116-.966,3.284-4.134,3.284H81.04c-2.28.116-8.655.232-10.626-.657l-.116-.039c-.039,0-2.782-.773-3.362-5.448v-.077a27.255,27.255,0,0,1-.386-4.83,1.256,1.256,0,0,1,.386-.927c1.275-1.275,4.946-1.546,6.376-1.546h.193c.077,0,6.917-.58,12.017,2.048C85.483,118.314,87.415,118.971,86.218,123.144Zm27.164.425v.077c-.58,4.675-3.323,5.448-3.362,5.448l-.116.039c-1.971.889-8.346.773-10.626.657h-.039a4.417,4.417,0,0,1-4.134-3.284c-.425-1.623-.773-2.7-1-3.362-1.236-4.173.7-4.83.7-4.83,5.062-2.628,11.94-2.048,12.017-2.048h.193c1.468,0,5.1.27,6.376,1.546a1.126,1.126,0,0,1,.386.927A27.86,27.86,0,0,1,113.381,123.569Z" transform="translate(-38.507 -74.428)"/>
  </g>
</svg>
